<svg width="51" height="50" viewBox="0 0 51 50" fill="none" xmlns="http://www.w3.org/2000/svg">
<rect x="3" y="2.5" width="45" height="45" rx="22.5" fill="white"/>
<rect x="3" y="2.5" width="45" height="45" rx="22.5" stroke="#FFD600" stroke-width="5"/>
<path d="M25.4991 32.1989C24.4764 32.1989 23.5673 32.0237 22.7718 31.6733C21.9811 31.3229 21.3561 30.8352 20.8968 30.2102C20.4376 29.5852 20.1937 28.8632 20.1653 28.044H22.8358C22.8594 28.437 22.9896 28.7803 23.2264 29.0739C23.4631 29.3627 23.778 29.5876 24.171 29.7486C24.564 29.9096 25.0043 29.9901 25.492 29.9901C26.0128 29.9901 26.4745 29.9001 26.877 29.7202C27.2794 29.5355 27.5943 29.2798 27.8216 28.9531C28.0488 28.6264 28.1601 28.25 28.1554 27.8239C28.1601 27.3835 28.0465 26.9953 27.8145 26.6591C27.5824 26.3229 27.2463 26.0601 26.8059 25.8707C26.3703 25.6813 25.8448 25.5866 25.2292 25.5866H23.9437V23.5554H25.2292C25.7359 23.5554 26.1786 23.4678 26.5574 23.2926C26.9409 23.1174 27.2415 22.8712 27.4593 22.554C27.6771 22.232 27.7837 21.8603 27.7789 21.4389C27.7837 21.027 27.6913 20.6695 27.502 20.3665C27.3173 20.0587 27.0545 19.8196 26.7136 19.6491C26.3774 19.4787 25.9821 19.3935 25.5275 19.3935C25.0824 19.3935 24.6705 19.474 24.2917 19.6349C23.9129 19.7959 23.6075 20.0256 23.3755 20.3239C23.1435 20.6174 23.0204 20.9678 23.0062 21.375H20.4707C20.4896 20.5606 20.724 19.8456 21.1738 19.2301C21.6284 18.6098 22.2344 18.1269 22.992 17.7812C23.7496 17.4309 24.5995 17.2557 25.5417 17.2557C26.5124 17.2557 27.3552 17.438 28.0701 17.8026C28.7898 18.1624 29.3462 18.6477 29.7392 19.2585C30.1322 19.8693 30.3287 20.544 30.3287 21.2827C30.3334 22.1018 30.0919 22.7884 29.6042 23.3423C29.1213 23.8963 28.4868 24.2585 27.7008 24.429V24.5426C28.7235 24.6847 29.5072 25.0634 30.0517 25.679C30.6009 26.2898 30.8732 27.0497 30.8684 27.9588C30.8684 28.7732 30.6364 29.5024 30.1724 30.1463C29.7131 30.7855 29.0787 31.2874 28.269 31.652C27.4641 32.0166 26.5408 32.1989 25.4991 32.1989Z" fill="#FFD600"/>
</svg>
