<svg width="51" height="50" viewBox="0 0 51 50" fill="none" xmlns="http://www.w3.org/2000/svg">
<rect x="3" y="2.5" width="45" height="45" rx="22.5" fill="white"/>
<rect x="3" y="2.5" width="45" height="45" rx="22.5" stroke="#DE3700" stroke-width="5"/>
<path d="M25.5213 32.1989C24.5743 32.1989 23.7268 32.0213 22.9787 31.6662C22.2306 31.3063 21.6364 30.8139 21.196 30.1889C20.7604 29.5639 20.5284 28.849 20.5 28.044H23.0568C23.1042 28.6406 23.3622 29.1283 23.831 29.5071C24.2997 29.8812 24.8632 30.0682 25.5213 30.0682C26.0374 30.0682 26.4967 29.9498 26.8991 29.7131C27.3016 29.4763 27.6188 29.1473 27.8509 28.7259C28.0829 28.3045 28.1965 27.8239 28.1918 27.2841C28.1965 26.7348 28.0805 26.2472 27.8438 25.821C27.607 25.3949 27.2827 25.0611 26.8707 24.8196C26.4588 24.5734 25.9853 24.4503 25.4503 24.4503C25.0147 24.4455 24.5862 24.526 24.1648 24.6918C23.7434 24.8575 23.4096 25.0753 23.1634 25.3452L20.7841 24.9545L21.544 17.4545H29.9815V19.6562H23.7244L23.3054 23.5128H23.3906C23.6605 23.1955 24.0417 22.9328 24.5341 22.7244C25.0265 22.5114 25.5663 22.4048 26.1534 22.4048C27.0341 22.4048 27.8201 22.6132 28.5114 23.0298C29.2027 23.4418 29.7472 24.0099 30.1449 24.7344C30.5426 25.4588 30.7415 26.2874 30.7415 27.2202C30.7415 28.1813 30.5189 29.0384 30.0739 29.7912C29.6335 30.5393 29.0204 31.1288 28.2344 31.5597C27.4531 31.9858 26.5488 32.1989 25.5213 32.1989Z" fill="#DE3700"/>
</svg>
