<svg width="110" height="110" viewBox="0 0 110 110" fill="none" xmlns="http://www.w3.org/2000/svg">
<path d="M53.2812 5.43553C52.1855 5.7578 31.5175 26.3398 30.873 27.7148C29.412 30.9375 31.7968 34.7832 35.3203 34.8691C37.5117 34.9121 37.662 34.7832 43.9999 28.5098L49.8437 22.666V51.2187C49.8437 73.0039 49.9081 79.9648 50.1015 80.6523C50.4453 81.834 52.2285 83.6172 53.4101 83.9609C55.4726 84.5625 57.3203 84.0469 58.7167 82.5C59.2324 81.9414 59.7695 81.082 59.8984 80.6094C60.0917 79.9863 60.1562 72.6601 60.1562 51.2187V22.666L66.0214 28.5098C72.3378 34.7832 72.4882 34.9121 74.6796 34.8691C78.2245 34.7832 80.5878 30.9375 79.1054 27.6933C78.7831 26.9844 75.9257 23.998 68.1913 16.2851C59.4257 7.541 57.5351 5.7578 56.7402 5.4785C55.6874 5.11327 54.3984 5.09178 53.2812 5.43553Z" fill="#1774D0"/>
<path d="M8.59359 50.123C7.4764 50.4883 5.73616 52.3145 5.4139 53.4961C5.19906 54.248 5.15609 59.4902 5.19906 76.377L5.26351 98.291L5.95101 99.7305C6.89632 101.729 8.09945 102.975 10.0545 103.941L11.6873 104.736H54.9998H98.3123L99.9451 103.941C101.9 102.975 103.103 101.729 104.049 99.7305L104.736 98.291L104.801 76.377C104.844 59.9844 104.801 54.2266 104.607 53.5391C104.242 52.2285 102.738 50.6172 101.471 50.1875C99.3866 49.4785 97.7108 49.8652 96.1424 51.4551C95.4549 52.1211 94.9608 52.8516 94.7889 53.4102C94.5955 54.0762 94.5311 59.2539 94.5311 74.4219V94.5312H54.9998H15.4686V74.4219C15.4686 59.4902 15.4041 54.0762 15.2108 53.4531C14.8455 52.1855 13.3201 50.5957 12.0955 50.1875C10.9569 49.8008 9.68929 49.7793 8.59359 50.123Z" fill="#1774D0"/>
</svg>
