<svg width="51" height="50" viewBox="0 0 51 50" fill="none" xmlns="http://www.w3.org/2000/svg">
<rect x="3" y="2.5" width="45" height="45" rx="22.5" fill="white"/>
<rect x="3" y="2.5" width="45" height="45" rx="22.5" stroke="#92E000" stroke-width="5"/>
<path d="M20.5817 32V30.0966L25.6314 25.1463C26.1143 24.6586 26.5168 24.2254 26.8388 23.8466C27.1607 23.4678 27.4022 23.1009 27.5632 22.7457C27.7242 22.3906 27.8047 22.0118 27.8047 21.6094C27.8047 21.1501 27.7005 20.7571 27.4922 20.4304C27.2839 20.099 26.9974 19.8433 26.6328 19.6634C26.2682 19.4834 25.8539 19.3935 25.3899 19.3935C24.9117 19.3935 24.4927 19.4929 24.1328 19.6918C23.773 19.8859 23.4936 20.1629 23.2947 20.5227C23.1006 20.8826 23.0036 21.3111 23.0036 21.8082H20.4964C20.4964 20.8849 20.7071 20.0824 21.1286 19.4006C21.55 18.7187 22.13 18.1908 22.8686 17.8168C23.612 17.4427 24.4643 17.2557 25.4254 17.2557C26.4008 17.2557 27.2578 17.438 27.9964 17.8026C28.7351 18.1671 29.308 18.6667 29.7152 19.3011C30.1271 19.9356 30.3331 20.66 30.3331 21.4744C30.3331 22.0189 30.2289 22.554 30.0206 23.0795C29.8123 23.6051 29.4453 24.1875 28.9197 24.8267C28.3989 25.4659 27.6674 26.2401 26.7251 27.1491L24.218 29.6989V29.7983H30.5533V32H20.5817Z" fill="#92E000"/>
</svg>
