<svg width="315" height="49" viewBox="0 0 315 49" fill="none" xmlns="http://www.w3.org/2000/svg">
<rect width="315" height="49" rx="10" fill="#1774D0"/>
<path d="M86.9589 14.952H99.2229V17.496H86.9589V14.952ZM86.7189 30.072L86.3829 27.456C90.2469 27.456 95.4789 27.408 99.8709 26.856L100.039 29.184C95.5509 29.976 90.5109 30.072 86.7189 30.072ZM88.8549 16.944H91.9509V28.152H88.8549V16.944ZM94.2309 16.944H97.3269V28.152H94.2309V16.944ZM100.879 12.912H104.095V35.136H100.879V12.912ZM103.375 21.336H107.311V23.952H103.375V21.336ZM115.013 13.56C118.397 13.56 120.941 15.672 120.941 18.648C120.941 21.6 118.397 23.712 115.013 23.712C111.629 23.712 109.085 21.6 109.085 18.648C109.085 15.672 111.629 13.56 115.013 13.56ZM115.013 16.152C113.381 16.152 112.157 17.064 112.157 18.648C112.157 20.232 113.381 21.144 115.013 21.144C116.645 21.144 117.845 20.232 117.845 18.648C117.845 17.064 116.645 16.152 115.013 16.152ZM124.013 12.912H127.229V24.024H124.013V12.912ZM112.397 24.936H127.229V31.032H115.565V33.72H112.445V28.728H124.061V27.408H112.397V24.936ZM112.445 32.424H127.781V34.896H112.445V32.424ZM141.782 15.192H144.422V16.584C144.422 20.784 142.382 24.576 138.11 25.944L136.478 23.472C140.174 22.272 141.782 19.368 141.782 16.584V15.192ZM142.43 15.192H145.046V16.584C145.046 19.224 146.63 21.936 150.254 23.088L148.622 25.56C144.446 24.24 142.43 20.592 142.43 16.584V15.192ZM151.646 12.912H154.862V26.304H151.646V12.912ZM139.694 27.288H154.862V35.136H151.646V29.832H139.694V27.288ZM137.318 14.208H149.414V16.728H137.318V14.208ZM170.484 17.88H174.708V20.448H170.484V17.88ZM173.868 12.912H177.06V25.056H173.868V12.912ZM162.3 25.968H165.468V27.984H173.892V25.968H177.06V34.896H162.3V25.968ZM165.468 30.456V32.352H173.892V30.456H165.468ZM163.596 14.616H166.188V16.032C166.188 20.208 164.22 24.072 159.948 25.488L158.34 22.944C162.012 21.744 163.596 18.84 163.596 16.032V14.616ZM164.268 14.616H166.836V16.032C166.836 18.624 168.348 21.384 171.852 22.56L170.292 25.032C166.164 23.664 164.268 19.992 164.268 16.032V14.616ZM159.204 13.92H171.156V16.464H159.204V13.92ZM186.909 22.656H188.757C193.077 22.656 195.621 22.584 198.525 22.056L198.861 24.552C195.885 25.08 193.197 25.176 188.757 25.176H186.909V22.656ZM186.909 14.184H197.349V16.704H190.101V23.64H186.909V14.184ZM189.117 18.408H196.869V20.904H189.117V18.408ZM189.141 26.88H203.589V34.896H189.141V26.88ZM200.469 29.376H192.285V32.376H200.469V29.376ZM200.397 12.912H203.589V25.896H200.397V12.912ZM202.701 18.096H206.541V20.736H202.701V18.096ZM212.179 14.184H214.675V16.728C214.675 20.52 213.163 24.288 209.539 25.848L207.859 23.376C210.955 22.008 212.179 19.248 212.179 16.728V14.184ZM212.755 14.184H215.251V16.728C215.251 19.2 216.427 21.6 219.355 22.824L217.675 25.248C214.219 23.832 212.755 20.424 212.755 16.728V14.184ZM224.083 12.936H227.107V26.4H224.083V12.936ZM221.419 18.312H224.947V20.904H221.419V18.312ZM219.379 13.272H222.355V26.28H219.379V13.272ZM211.843 27.36H227.107V35.136H223.939V29.904H211.843V27.36Z" fill="white"/>
</svg>
